<svg xmlns="http://www.w3.org/2000/svg" viewBox="0 0 300 200">
  <!-- Tomato -->
  <ellipse cx="200" cy="80" rx="60" ry="50" fill="#e74c3c" />
  <path d="M200,30 C220,30 245,40 260,60" stroke="#2ecc71" stroke-width="3" fill="none" />
  <path d="M200,30 C180,30 155,40 140,60" stroke="#2ecc71" stroke-width="3" fill="none" />
  
  <!-- Leaf on tomato -->
  <path d="M195,30 C185,20 170,15 155,20 C150,25 155,35 165,40 C175,42 190,40 195,30 Z" fill="#2ecc71" />
  
  <!-- Mushroom -->
  <ellipse cx="130" cy="100" rx="25" ry="20" fill="#ecf0f1" />
  <rect x="125" y="100" width="10" height="30" fill="#ecf0f1" />
  
  <!-- Mushroom 2 -->
  <ellipse cx="90" cy="80" rx="20" ry="15" fill="#ecf0f1" />
  <rect x="85" y="80" width="10" height="25" fill="#ecf0f1" />
  
  <!-- Basil Leaf 1 -->
  <path d="M160,60 C180,50 200,55 210,70 C215,80 210,90 195,95 C175,100 160,90 155,75 C153,65 155,65 160,60 Z" fill="#2ecc71" />
  
  <!-- Basil Leaf 2 -->
  <path d="M110,50 C130,40 150,45 160,60 C165,70 160,80 145,85 C125,90 110,80 105,65 C103,55 105,55 110,50 Z" fill="#2ecc71" />
</svg>